<?xml version="1.0" encoding="UTF-8" standalone="no"?>
<!-- Creator: CorelDRAW (Оценочная версия) -->

<svg
   xml:space="preserve"
   width="254mm"
   height="254mm"
   version="1.1"
   style="shape-rendering:geometricPrecision; text-rendering:geometricPrecision; image-rendering:optimizeQuality; fill-rule:evenodd; clip-rule:evenodd"
   viewBox="0 0 25400 25400"
   id="svg1"
   sodipodi:docname="7.44.svg"
   inkscape:version="1.3.2 (091e20e, 2023-11-25, custom)"
   xmlns:inkscape="http://www.inkscape.org/namespaces/inkscape"
   xmlns:sodipodi="http://sodipodi.sourceforge.net/DTD/sodipodi-0.dtd"
   xmlns="http://www.w3.org/2000/svg"
   xmlns:svg="http://www.w3.org/2000/svg"><sodipodi:namedview
   id="namedview1"
   pagecolor="#ffffff"
   bordercolor="#000000"
   borderopacity="0.25"
   inkscape:showpageshadow="2"
   inkscape:pageopacity="0.0"
   inkscape:pagecheckerboard="0"
   inkscape:deskcolor="#d1d1d1"
   inkscape:document-units="mm"
   inkscape:zoom="0.85520833"
   inkscape:cx="479.41535"
   inkscape:cy="480"
   inkscape:window-width="1920"
   inkscape:window-height="1017"
   inkscape:window-x="-8"
   inkscape:window-y="-8"
   inkscape:window-maximized="1"
   inkscape:current-layer="Слой_x0020_1" />
 <defs
   id="defs1">
  <style
   type="text/css"
   id="style1">
   <![CDATA[
    .fil0 {fill:#00FFE5}
   ]]>
  </style>
 </defs>
 <g
   id="Слой_x0020_1"
   inkscape:label="Слой 1">
  <metadata
   id="CorelCorpID_0Corel-Layer" />
  <path
   class="fil0"
   d="m 9045.4047,24426.625 h 392.1807 v -1299.057 l 912.2286,-1266.892 h -162.582 l -860.1162,1194.502 v 1280.23 h -171.2415 v -1335.455 l 943.6787,-1310.519 h 584.609 l -1075.3339,1493.359 v 1415.075 h -734.6662 v -1415.075 l -1072.7825,-1490.615 208.278,-3.033 1035.7473,1438.423 z m 7966.6633,-2565.949 h -123.053 v 2565.949 h 401.672 v -2737.191 h 171.242 v 2908.434 h -744.157 v -2908.434 h 465.538 v 2609.363 h -171.242 z m -2926.294,563.404 v 1892.075 h -171.242 v -2063.316 h 1132.106 c 45.443,0 73.974,0.367 118.317,14.362 326.112,102.95 452.529,550.086 452.529,852.964 0,196.603 -42.97,405.48 -132.371,581.362 -70.515,138.71 -185.333,282.853 -342.31,324.624 -26.463,7.036 -45.503,8.312 -72.583,8.312 h -536.092 v -171.243 h 527.973 c 21.147,0 33.19,1.141 53.562,-5.644 107.803,-35.818 186.611,-158.91 231.126,-256.816 66.785,-146.886 98.641,-319.753 98.641,-480.614 0,-219.239 -82.655,-603.127 -320.488,-687.599 -28.337,-10.07 -44.13,-8.467 -73.608,-8.467 z m -281.711,2002.545 h 1272.942 c 14.747,0 26.538,-1.102 41.056,-3.77 264.083,-48.498 485.351,-215.352 639.119,-431.324 174.683,-245.334 260.874,-548.056 260.874,-847.88 0,-301.196 -86.983,-605.35 -263.272,-851.244 -155.217,-216.513 -378.399,-382.885 -644.221,-429.315 -13.59,-2.377 -25.652,-2.416 -39.375,-2.416 H 13632.82 v -171.242 h 1439.255 c 16.721,0 32.088,0.232 48.711,2.784 680.195,104.767 1069.323,810.341 1069.323,1451.433 0,340.165 -100.071,681.683 -301.198,957.789 -182.047,249.895 -442.979,437.665 -751.289,490.859 -26.539,4.582 -50.142,5.569 -76.951,5.569 H 13632.82 v -2626.742 h 1441.014 c 20.818,0 38.388,1.316 58.917,5.238 233.33,44.594 423.785,199.678 553.47,393.748 149.688,224.032 220.185,497.993 220.185,765.922 0,267.602 -70.226,541.987 -216.474,767.625 -126.476,195.133 -313.742,356.247 -545.738,404.938 -29.458,6.186 -53.62,7.558 -83.523,7.558 h -864.427 v -1833.234 h 171.242 v 1661.991 h 692.161 c 20.991,0 37.093,0.213 57.775,-4.445 188.06,-42.158 337.363,-181.72 436.912,-341.326 122.125,-195.81 180.017,-433.489 180.017,-663.087 0,-373.104 -175.185,-842.487 -559.809,-971.456 -57.892,-19.407 -84.549,-22.229 -145.07,-22.229 h -1225.409 z m -990.98,-392.162 h -1111.809 v -466.641 h 171.243 v 295.398 h 1111.808 v 734.648 H 11137.85 v -2908.434 h 171.242 v 2737.191 h 1503.991 z m 3.286,-2173.787 h -1225.565 v 1177.298 h 969.387 v 171.243 h -1140.629 v -1519.783 h 1568.05 v 734.415 l -41.83,0.252 h -1010.676 v -171.243 h 881.263 z m -1225.565,1610.362 v 673.874 h 1111.81 v 171.243 h -1283.052 v -1016.358 h 1222.279 v -350.932 h -940.567 v -977.72 h 1001.34 v 171.243 h -830.097 v 635.234 h 940.566 v 693.416 z m -2436.4182,-2112.452 154.0391,215.411 278.4067,-386.654 h 213.5931 l -489.5452,684.447 -489.487,-684.447 h 538.5461 l 93.5947,129.993 -120.7723,125.295 -60.5215,-84.045 z m -534.5651,502.09 H 8504.887 l 581.7868,813.513 709.0542,-984.755 h 210.713 l -917.3316,1282.549 -917.217,-1282.549 h 535.6274 l 524.2624,728.094 -120.7913,125.296 z m 9212.2343,1106.126 h 1127.331 v 353.677 h -1127.331 z m -11354.4545,0 h 1127.3313 v 353.677 H 6477.6005 Z M 18122.253,496.9046 h 596.478 L 11850.538,18908.094 h -604.963 z m -942.597,0 h 596.478 L 10907.941,18908.094 h -604.963 z m -942.596,0 h 596.478 L 9965.3474,18908.094 h -604.9649 z m -942.597,0 h 596.478 L 9022.7505,18908.094 H 8417.786 Z m -8579.0871,0 h 7636.4911 596.478 L 8080.1541,18908.094 H 7475.1896 L 12801.93,4646.6174 H 6715.3759 v -558.5527 h 6295.1791 l 126.708,-339.2372 H 6715.3759 v -558.5529 h 6630.5131 l 126.707,-339.2372 H 6715.3759 v -558.5527 h 6965.8271 l 126.726,-339.2373 H 6715.3759 v -558.5528 h 7301.1591 l 126.706,-339.2373 H 6715.3759 Z"
   id="path1"
   style="stroke-width:1.93297" />
 </g>
</svg>
